<svg aria-hidden="true" style="position: absolute; width: 0; height: 0; overflow: hidden;" version="1.1" xmlns="http://www.w3.org/2000/svg" xmlns:xlink="http://www.w3.org/1999/xlink">
    <defs>
        <symbol id="login" viewBox="0 0 448 512">
            <title>login</title>
            <path d="M313.6 304c-28.7 0-42.5 16-89.6 16-47.1 0-60.8-16-89.6-16C60.2 304 0 364.2 0 438.4V464c0 26.5 21.5 48 48 48h352c26.5 0 48-21.5 48-48v-25.6c0-74.2-60.2-134.4-134.4-134.4zM400 464H48v-25.6c0-47.6 38.8-86.4 86.4-86.4 14.6 0 38.3 16 89.6 16 51.7 0 74.9-16 89.6-16 47.6 0 86.4 38.8 86.4 86.4V464zM224 288c79.5 0 144-64.5 144-144S303.5 0 224 0 80 64.5 80 144s64.5 144 144 144zm0-240c52.9 0 96 43.1 96 96s-43.1 96-96 96-96-43.1-96-96 43.1-96 96-96z"/>
        </symbol>
        <symbol id="basket" viewBox="0 0 24 24">
            <title>basket</title>
            <path class="text-orange-dark fill-current" d="M17.21 9l-4.38-6.56c-.19-.28-.51-.42-.83-.42-.32 0-.64.14-.83.43L6.79 9H2c-.55 0-1 .45-1 1 0 .09.01.18.04.27l2.54 9.27c.23.84 1 1.46 1.92 1.46h13c.92 0 1.69-.62 1.93-1.46l2.54-9.27L23 10c0-.55-.45-1-1-1h-4.79zM9 9l3-4.4L15 9H9zm3 8c-1.1 0-2-.9-2-2s.9-2 2-2 2 .9 2 2-.9 2-2 2z"/>
            <path d="M0 0h24v24H0z" fill="none"/>
        </symbol>
        <symbol id="arrow-up" viewBox="0 0 24 24">
            <title>arrow-up</title>
            <path fill="none" d="M0 0h24v24H0V0z"/>
            <path d="M7.41 15.41L12 10.83l4.59 4.58L18 14l-6-6-6 6 1.41 1.41z"/>
        </symbol>
        <symbol id="arrow-down" viewBox="0 0 24 24">
            <title>arrow-down</title>
            <path fill="none" d="M0 0h24v24H0V0z"/>
            <path d="M7.41 8.59L12 13.17l4.59-4.58L18 10l-6 6-6-6 1.41-1.41z"/>
        </symbol>
        <symbol id="delete" viewBox="0 0 24 24">
            <title>delete</title>
            <path fill="none" d="M0 0h24v24H0V0z"/>
            <path d="M6 19c0 1.1.9 2 2 2h8c1.1 0 2-.9 2-2V7H6v12zm2.46-7.12l1.41-1.41L12 12.59l2.12-2.12 1.41 1.41L13.41 14l2.12 2.12-1.41 1.41L12 15.41l-2.12 2.12-1.41-1.41L10.59 14l-2.13-2.12zM15.5 4l-1-1h-5l-1 1H5v2h14V4z"/>
            <path fill="none" d="M0 0h24v24H0z"/>
        </symbol>
        <symbol id="favorite" viewBox="0 0 24 24">
            <title>favorite</title>
            <path d="M0 0h24v24H0z" fill="none"/>
            <path d="M16.5 3c-1.74 0-3.41.81-4.5 2.09C10.91 3.81 9.24 3 7.5 3 4.42 3 2 5.42 2 8.5c0 3.78 3.4 6.86 8.55 11.54L12 21.35l1.45-1.32C18.6 15.36 22 12.28 22 8.5 22 5.42 19.58 3 16.5 3zm-4.4 15.55l-.1.1-.1-.1C7.14 14.24 4 11.39 4 8.5 4 6.5 5.5 5 7.5 5c1.54 0 3.04.99 3.57 2.36h1.87C13.46 5.99 14.96 5 16.5 5c2 0 3.5 1.5 3.5 3.5 0 2.89-3.14 5.74-7.9 10.05z"/>
        </symbol>
        <symbol id="favorite-full" viewBox="0 0 24 24">
            <title>favorite-full</title>
            <path d="M0 0h24v24H0z" fill="none"/>
            <path d="M12 21.35l-1.45-1.32C5.4 15.36 2 12.28 2 8.5 2 5.42 4.42 3 7.5 3c1.74 0 3.41.81 4.5 2.09C13.09 3.81 14.76 3 16.5 3 19.58 3 22 5.42 22 8.5c0 3.78-3.4 6.86-8.55 11.54L12 21.35z"/>
        </symbol>
        <symbol id="navigate-next" viewBox="0 0 24 24">
            <title>navigate-next</title>
            <path d="M10 6L8.59 7.41 13.17 12l-4.58 4.59L10 18l6-6z"/>
            <path d="M0 0h24v24H0z" fill="none"/>
        </symbol>
        <symbol id="navigate-prev" viewBox="0 0 24 24">
            <title>navigate-prev</title>
            <path d="M15.41 7.41L14 6l-6 6 6 6 1.41-1.41L10.83 12z"/>
            <path d="M0 0h24v24H0z" fill="none"/>
        </symbol>
        <symbol id="close" viewBox="0 0 24 24">
            <title>close</title>
            <path d="M19 6.41L17.59 5 12 10.59 6.41 5 5 6.41 10.59 12 5 17.59 6.41 19 12 13.41 17.59 19 19 17.59 13.41 12z"/>
            <path d="M0 0h24v24H0z" fill="none"/>
        </symbol>
        <symbol id="search" viewBox="0 0 24 24">
            <title>search</title>
            <path class="text-orange-dark fill-current" d="M15.5 14h-.79l-.28-.27C15.41 12.59 16 11.11 16 9.5 16 5.91 13.09 3 9.5 3S3 5.91 3 9.5 5.91 16 9.5 16c1.61 0 3.09-.59 4.23-1.57l.27.28v.79l5 4.99L20.49 19l-4.99-5zm-6 0C7.01 14 5 11.99 5 9.5S7.01 5 9.5 5 14 7.01 14 9.5 11.99 14 9.5 14z"/>
            <path d="M0 0h24v24H0z" fill="none"/>
        </symbol>
        <symbol id="send" viewBox="0 0 24 24">
            <title>send</title>
            <path fill="none" d="M0 0h24v24H0V0z"/>
            <path d="M4.01 6.03l7.51 3.22-7.52-1 .01-2.22m7.5 8.72L4 17.97v-2.22l7.51-1M2.01 3L2 10l15 2-15 2 .01 7L23 12 2.01 3z"/>
        </symbol>
    </defs>
</svg>
